<?xml version="1.0" encoding="utf-8"?>
<!-- Generator: Adobe Illustrator 27.2.0, SVG Export Plug-In . SVG Version: 6.00 Build 0)  -->
<svg version="1.1" xmlns="http://www.w3.org/2000/svg" xmlns:xlink="http://www.w3.org/1999/xlink" x="0px" y="0px"
	 viewBox="0 0 300 44" style="enable-background:new 0 0 300 44;" xml:space="preserve">
<style type="text/css">
	.st0{fill:#E50011;}
	.st1{fill:#00A0E8;}
	.st2{fill:#666666;}
</style>
<g id="レイヤー_1">
</g>
<g id="ロゴ">
	<g>
		<g>
			<g>
				<g>
					<g>
						<g>
							<path class="st0" d="M90.8,13c-1.6-2.7-6-4.2-12.2-4.5h0c0,0.2-0.1,0.4-0.2,0.7c-0.1,0.5-0.3,1-0.4,1.5c1.1,0.5,2,1.2,2.4,2
								c2.2,3.7-3.4,9.6-13.6,15.2c-1.1,0.7-2.2,1.3-3.3,1.7c-4.8,2.4-10.4,4.8-16.5,6.8c-10.3,3.5-20.2,5.6-28.2,6.3v0
								c0,0-0.1,0-0.1,0c0,0-0.1,0-0.1,0c0,0,0.1,0,0.1,0c0,0,0,0,0.1,0v0c8.3,2.4,23.9,0.7,40.1-4.8C80.4,30.8,94.6,19.6,90.8,13z"
								/>
						</g>
						<g>
							<path class="st1" d="M18.8,42.8c0,0-0.1,0-0.1,0c-1.9-0.6-3.4-1.4-4.4-2.4c-0.8-0.5-1.2-1.3-1.4-2.1
								c-0.5-2.2,0.6-5.2,2.4-8.2l5.1-7.2c0.2-0.3,0.4-0.5,0.6-0.8l1.3-2.8l-1.1,0.5C9.5,25.3,1.8,31.2,0.3,35.9
								C-2.8,45.8,18.7,42.9,18.8,42.8z"/>
						</g>
					</g>
					<path d="M151.8,18.9c-0.8,7.3-5.7,11.3-12.4,12.4v-2.7c5.5-1.1,8.7-4.6,9.2-9.7h-11.8v-1.8h23.5v1.8H151.8z M138.6,11.3V9.5
						h19.9v1.9H138.6z"/>
					<path d="M270.4,18.9c-0.8,7.3-5.7,11.3-12.4,12.4v-2.7c5.5-1.1,8.7-4.6,9.2-9.7h-11.8v-1.8h23.5v1.8H270.4z M256.9,11.3V9.5
						h18.3v1.9H256.9z"/>
					<path d="M173.5,19.2v13.1h-2.9V21c-2.9,1.5-6.3,2.7-10.1,3.4v-1.8c8.8-1.9,14.6-6.6,17-10.1h2.3
						C178.3,14.7,176.2,17.2,173.5,19.2z"/>
					<path d="M293.6,19.2v13.1h-2.9V21c-2.9,1.5-6.3,2.7-10.1,3.4v-1.8c8.8-1.9,14.6-6.6,17-10.1h2.3
						C298.5,14.7,296.4,17.2,293.6,19.2z"/>
					<path d="M185.4,21.8c-1.3,0-2.3-1.1-2.3-2.4c0-1.3,1-2.4,2.3-2.4c1.3,0,2.3,1.1,2.3,2.4C187.7,20.7,186.7,21.8,185.4,21.8z"/>
					<path d="M247.7,21.8c-1.3,0-2.3-1.1-2.3-2.4c0-1.3,1-2.4,2.3-2.4c1.3,0,2.3,1.1,2.3,2.4C250,20.7,249,21.8,247.7,21.8z"/>
					<g>
						<path d="M114.8,7.5c0,0.2,0,1.9,0,1.9h-1.3l0.3-1.1c0,0,0-0.1,0.1-0.2c-0.2,0-0.7-0.2-0.8-0.2c-0.3,1.8-0.9,3-1,3.2
							c0.1,0.1,0.6,0.5,0.8,0.6c0.1-0.2,0.5-1.4,0.5-1.4l0.1,0h1.3v2.1c0,0-2.3,0-2.6,0c0,0.2,0,0.7,0,0.8c0.2,0,1.9,0,1.9,0
							l-0.1,0.2c-0.3,0.9-1.2,2.2-2.4,3.1c0.1,0.1,0.5,0.7,0.6,0.8c1.4-1.2,2.1-3,2.3-3.5l0.2,0c0,0,0,4.3,0,4.5c0.2,0,0.8,0,0.9,0
							c0-0.2,0-4.5,0-4.5l0.2,0c0.3,0.9,0.9,2.2,1.8,3.4c0.1-0.2,0.6-0.8,0.7-0.9c-1-1-1.8-2.2-2-3l-0.1-0.2c0,0,1.7,0,1.9,0
							c0-0.2,0-0.7,0-0.8c-0.2,0-2.6,0-2.6,0v-2.1c0,0,2,0,2.2,0c0-0.2,0-0.6,0-0.8c-0.2,0-2.2,0-2.2,0s0-1.7,0-1.9
							C115.6,7.5,115,7.5,114.8,7.5z M109.7,7.5c0,0.2,0,2.1,0,2.1s-1.4,0-1.6,0c0,0.2,0,0.7,0,0.9c0.2,0,1.5,0,1.5,0l0,0.1
							c-0.2,0.7-0.8,2.3-1.7,3.5c0.1,0.1,0.5,0.6,0.7,0.8c0.4-0.8,0.8-1.7,0.9-2.7l0.2,0c0,0,0,5.8,0,6c0.2,0,0.8,0,0.9,0
							c0-0.2,0-6.5,0-6.5l0.2,0c0.2,0.5,0.5,1,0.6,1.2c0.1-0.2,0.4-0.7,0.5-0.8c-0.2-0.2-0.8-0.7-1.2-1.5l-0.1-0.2c0,0,1.1,0,1.3,0
							c0-0.2,0-0.7,0-0.9c-0.2,0-1.4,0-1.4,0s0-1.8,0-2.1C110.4,7.5,109.8,7.5,109.7,7.5z"/>
						<path d="M126.1,7.5c0,0.2,0.1,2.4,0.1,2.4l-0.1,0c0,0-5.7,0-5.9,0c0,0.2,0,0.7,0,0.9c0.2,0,6.1,0,6.1,0l0,0.3
							c0.2,1.8,0.5,4,1.8,6.1c0.4,0.6,0.8,0.9,1.1,0.9c0.5,0,1.1-0.7,1.5-2c-0.1-0.1-0.6-0.6-0.8-0.8c-0.4,1.3-0.5,1.7-0.7,1.7
							c-0.2,0-0.3-0.2-0.4-0.5c-0.9-1.6-1.3-3.2-1.5-5.6l0-0.1c0,0,3,0,3.3,0c0-0.2,0-0.7,0-0.9c-0.2,0-3.3,0-3.3,0
							s-0.1-2.3-0.1-2.4C126.9,7.5,126.3,7.5,126.1,7.5z M128,8.1c0.7,0.6,1.2,1.2,1.3,1.4c0.1-0.1,0.5-0.4,0.7-0.6
							c-0.2-0.2-0.7-0.8-1.4-1.4C128.5,7.7,128.1,7.9,128,8.1z M120.8,12.7c0,0.2,0,0.7,0,0.9c0.2,0,1.8,0,1.8,0v3
							c0,0-2,0.3-2.2,0.3c0.1,0.2,0.2,0.8,0.3,0.9c2.4-0.3,4.6-0.9,5-1c0-0.1,0-0.7,0.1-0.9c-0.3,0.1-2.2,0.5-2.2,0.5l0-0.2v-2.7
							c0,0,1.7,0,1.9,0c0-0.2,0-0.7,0-0.9C125.2,12.7,121,12.7,120.8,12.7z"/>
						<path d="M112.7,20.5c-0.6,1-2.5,2.3-5,3.2c0.1,0.2,0.4,0.8,0.5,1c2-0.7,4.1-2.2,4.9-3.2l0.1-0.1l0.1,0.1c0.8,1,3,2.3,4.9,3.1
							c0.1-0.2,0.4-0.8,0.4-1c-3.4-1.3-4.7-2.6-5-3C113.5,20.5,112.8,20.5,112.7,20.5z M110.3,24.2c0,0.2,0,0.7,0,0.8
							c0.2,0,5.9,0,6.1,0c0-0.2,0-0.6,0-0.8C116.1,24.2,110.5,24.2,110.3,24.2z M108.4,26.6c0,0.2,0,0.7,0,0.8c0.2,0,3.2,0,3.2,0
							l-0.1,0.2c-0.2,0.4-0.9,1.6-1.9,2.5c-0.1,0-0.6,0-0.6,0s-0.3,0-0.4,0c0,0.2,0.1,0.7,0.2,0.9c2.1-0.1,5.1-0.3,7.5-0.7l0.1,0
							c0,0,0.7,0.8,0.8,1c0.1-0.2,0.6-0.7,0.7-0.8c-1.3-1.4-2.4-2.4-2.6-2.5c-0.1,0.1-0.6,0.4-0.8,0.5c0.2,0.2,1.2,1.2,1.2,1.2
							l-0.3,0c-0.9,0.1-2.2,0.3-4.4,0.4l-0.3,0l0.2-0.2c0.7-0.7,1.4-1.7,1.7-2.4l0-0.1c0,0,4.9,0,5.1,0c0-0.2,0-0.7,0-0.8
							C117.7,26.6,108.7,26.6,108.4,26.6z"/>
						<path d="M127.4,20.6c0,0.2,0,3.7,0,3.7s-1.9,0-2.1,0c0,0.2,0,0.7,0,0.9c0.2,0,2.1,0,2.1,0v4.7c0,0-2.5,0-2.7,0
							c0,0.2,0,0.7,0,0.9c0.2,0,5.9,0,6.1,0c0-0.2,0-0.7,0-0.9c-0.2,0-2.5,0-2.5,0v-4.7c0,0,2,0,2.2,0c0-0.2,0-0.7,0-0.9
							c-0.2,0-2.2,0-2.2,0s0-3.5,0-3.7C128.1,20.6,127.5,20.6,127.4,20.6z M122.2,20.6c0,0.2,0,1.9,0,1.9s-1.4,0-1.6,0
							c0,0.2,0,0.7,0,0.9c0.2,0,3.2,0,3.2,0l-0.1,0.2c0,0.1-0.9,1.8-3.7,3.4c0.1,0.1,0.3,0.7,0.4,0.8c0.6-0.4,1.2-0.8,1.6-1.2
							l0.2-0.2c0,0,0,4.8,0,5c0.2,0,0.8,0,0.9,0c0-0.2,0-5.5,0-5.5l0.3,0.3c0,0,0.9,1,1.1,1.1c0.1-0.2,0.5-0.7,0.6-0.8
							c-0.6-0.4-1.2-0.8-1.5-1.1l-0.1-0.1l0.1-0.1c0.9-1,1.3-1.9,1.3-1.9s0-0.7,0-0.9c-0.2,0-1.6,0-1.6,0s0-1.7,0-1.9
							C123,20.6,122.4,20.6,122.2,20.6z"/>
					</g>
					<path d="M237.6,15.7c-0.8,1.6-1.9,3.5-3.3,5.9c4.4,2.7,7.2,4.8,9.6,7.7l-3,2.1c-2.5-4.1-6-7-7.8-8.3c-2.8,3.1-5.8,5.8-14.5,8.4
						l-0.7-1.6c3.7-0.7,9.3-3.4,13.1-9c2.2-3.1,3.8-6.9,4.7-9.4H220V9.6h19.9C239.9,9.6,239.4,12.1,237.6,15.7z"/>
				</g>
				<polygon points="214.6,27.9 204.1,27.9 204.1,11.5 212.5,11.5 212.5,9.6 192.4,9.6 192.4,11.5 201.1,11.5 201.1,27.9 
					190.2,27.9 190.2,29.8 214.6,29.8 				"/>
			</g>
			<path d="M284,10.3c-0.7-1.4-1.7-2.8-2.8-4.1l-0.1-0.1l-1.3,0.7l0.1,0.1c0.9,1.4,1.7,2.8,2.3,4.2l0.1,0.1l1.8-0.9L284,10.3z"/>
			<path d="M276.9,6.2L276.9,6.2l-1.4,0.6l0.1,0.1c0.9,1.4,1.7,2.8,2.3,4.2l0.1,0.1l1.8-0.9l-0.1-0.1C278.9,8.9,278,7.5,276.9,6.2z"
				/>
		</g>
		<path class="st2" d="M20.6,28c1.7,0,2.5,0,4.1,0C28.2,20.7,31.6,13.3,35,6c2.2,0,4.4,0,6.6,0c1-2.1,1.5-3.1,2.4-5.2
			c-5.8,0-11.5,0-17.3,0c-1,2.1-1.5,3.1-2.4,5.2c2.2,0,4.4,0,6.5,0C27.5,13.3,24.1,20.7,20.6,28z"/>
		<path class="st2" d="M41,13.4c0.1,0.9,0.6,1.7,1.3,2.4c0.5,0.4,1.3,0.8,2.5,1.4c1.1,0.5,1.9,1,2.3,1.3c0.3,0.3,0.4,0.8,0.3,1.4
			c-0.1,0.5-0.3,0.9-0.5,1.4c-1,1.8-3,2.9-5.1,2.8c-0.7,0-1.4-0.3-2.2-0.8c-0.9-0.6-1.3-1.4-1.4-2.2c-0.2,0-0.3-0.1-0.5-0.1
			c-1.2,1.6-2.4,3.1-3.6,4.7c0.4,1.1,1.1,2,2.2,2.7c1,0.6,2.2,0.9,3.4,0.9c2,0,4.1-0.4,5.9-1.5c2.5-1.5,4.3-4,5.5-6.6
			c0.7-1.5,1.1-2.8,1.2-4.1c0.2-1.5-0.1-2.6-0.8-3.3c-0.9-0.8-2.1-1.2-3.2-1.7c-0.8-0.4-1.4-0.7-1.9-1.1c-0.6-0.4-0.6-1.4,0.1-2.8
			c1-1.9,3-2.9,5.1-3c0.6,0,1.2,0.2,1.7,0.7c0.5,0.5,0.9,1.1,1,1.8c0.2,0,0.3,0.1,0.5,0.1c1.5-1.8,2.2-2.7,3.7-4.4
			c-0.7-2-2.6-3.1-4.7-3.1c-2.1,0-4.2,0.5-6,1.6c-2.6,1.6-4.4,4.1-5.7,6.7C41.3,10.5,40.9,12.1,41,13.4z"/>
		<path class="st2" d="M59,28c7.6,0,12.4-8,15.1-13.9c1.4-3,3.1-6.6,2.5-10c-0.4-2.5-3.1-3.5-5.4-3.4c-2.5,0-5.1,0-7.6,0
			C59.4,9.8,55.1,18.9,50.8,28C53.6,28,56.3,28,59,28z M65.2,5.8c1.1,0,1.7,0,2.9,0c2.2,0,3.5,0.6,3.7,1.6c0.5,2.1-0.9,4.7-1.8,6.6
			c-1.1,2.5-2.5,5.3-4.6,7.1C64,22.4,62.3,23,60.2,23c-1.2,0-1.8,0-3,0C59.9,17.3,62.6,11.5,65.2,5.8z"/>
	</g>
</g>
</svg>
